<?xml version="1.0" encoding="UTF-8" standalone="no"?>
<!-- Created with Inkscape (http://www.inkscape.org/) -->

<svg
   width="4.8533258mm"
   height="5.2916641mm"
   viewBox="0 0 4.8533258 5.2916641"
   version="1.1"
   id="svg5"
   xml:space="preserve"
   inkscape:export-filename="bitmap.svg"
   inkscape:export-xdpi="96"
   inkscape:export-ydpi="96"
   xmlns:inkscape="http://www.inkscape.org/namespaces/inkscape"
   xmlns:sodipodi="http://sodipodi.sourceforge.net/DTD/sodipodi-0.dtd"
   xmlns="http://www.w3.org/2000/svg"
   xmlns:svg="http://www.w3.org/2000/svg"><sodipodi:namedview
     id="namedview7"
     pagecolor="#ffffff"
     bordercolor="#000000"
     borderopacity="0.25"
     inkscape:showpageshadow="2"
     inkscape:pageopacity="0.0"
     inkscape:pagecheckerboard="0"
     inkscape:deskcolor="#d1d1d1"
     inkscape:document-units="mm"
     showgrid="false" /><defs
     id="defs2" /><g
     inkscape:label="Layer 1"
     inkscape:groupmode="layer"
     id="layer1"
     transform="translate(-171.09172,-150.44041)"><g
       style="fill:none"
       id="g3122"
       transform="matrix(0.26458333,0,0,0.26458333,170.34345,149.68981)"><path
         d="m 17.3333,9.03691 c 0,-1.37912 -0.5619,-2.70176 -1.5621,-3.67695 C 14.771,4.38477 13.4145,3.83691 12,3.83691 10.5855,3.83691 9.22896,4.38477 8.22876,5.35996 7.22857,6.33515 6.66667,7.65779 6.66667,9.03691 6.66667,15.1036 4,17.8369 4,17.8369 h 16 c 0,0 -2.6667,-2.7333 -2.6667,-8.79999 z"
         stroke="#91a2b8"
         stroke-width="2"
         stroke-linecap="round"
         stroke-linejoin="round"
         id="path3104" /><path
         d="m 14,20.8369 c -0.2032,0.3042 -0.495,0.5566 -0.846,0.7321 -0.351,0.1755 -0.7489,0.2679 -1.154,0.2679 -0.4051,0 -0.803,-0.0924 -1.154,-0.2679 C 10.495,21.3935 10.2032,21.1411 10,20.8369"
         stroke="#91a2b8"
         stroke-width="2"
         stroke-linecap="round"
         stroke-linejoin="round"
         id="path3106" /><path
         d="m 18.0176,3.85059 c 1.3792,1.03931 1.9819,2.41809 2.1538,4.00206"
         stroke="#91a2b8"
         stroke-width="2"
         stroke-linecap="round"
         stroke-linejoin="round"
         id="path3108" /><path
         d="M 5.98197,3.85059 C 4.60275,4.8899 4.00003,6.26868 3.82812,7.85265"
         stroke="#91a2b8"
         stroke-width="2"
         stroke-linecap="round"
         stroke-linejoin="round"
         id="path3110" /></g></g></svg>
