<svg width="23" height="24" viewBox="0 0 23 24" fill="none" xmlns="http://www.w3.org/2000/svg">
<path d="M20.5487 10.8791C20.6365 10.6003 20.6845 10.3105 20.6913 10.0184V5.96814C20.6913 3.08231 16.3111 0.905273 10.5048 0.905273C4.69855 0.905273 0.318359 3.08231 0.318359 5.96814V10.0184C0.374512 10.693 0.604601 11.3418 0.986433 11.9023C1.36826 12.4628 1.88895 12.916 2.49827 13.2182C2.40474 13.4921 2.35658 13.7794 2.35566 14.0687V18.119C2.35566 21.0049 6.73585 23.1819 12.5421 23.1819C18.3484 23.1819 22.7286 21.0049 22.7286 18.119V14.0687C22.6737 13.3951 22.444 12.7471 22.0619 12.1881C21.6799 11.6291 21.1585 11.1781 20.5487 10.8791ZM10.5048 15.0813C14.4266 15.0813 17.6965 14.0687 19.4078 12.5499C20.2228 13.0359 20.6913 13.5624 20.6913 14.0687C20.6913 15.3041 17.5132 17.1064 12.5421 17.1064C7.57114 17.1064 4.48463 15.3547 4.39296 14.1194C6.35951 14.7867 8.42708 15.1121 10.5048 15.0813ZM10.5048 2.93042C15.4759 2.93042 18.654 4.7328 18.654 5.96814C18.654 7.20348 15.4759 9.00586 10.5048 9.00586C5.53384 9.00586 2.35566 7.20348 2.35566 5.96814C2.35566 4.7328 5.53384 2.93042 10.5048 2.93042ZM2.35566 9.06661C4.8332 10.4676 7.65694 11.1482 10.5048 11.031C13.3528 11.1482 16.1765 10.4676 18.654 9.06661V10.0184C18.654 11.2538 15.4759 13.0562 10.5048 13.0562C5.53384 13.0562 2.35566 11.2538 2.35566 10.0184V9.06661ZM12.5421 21.1567C7.57114 21.1567 4.39296 19.3544 4.39296 18.119V17.1672C6.87049 18.5682 9.69423 19.2488 12.5421 19.1316C15.3901 19.2488 18.2138 18.5682 20.6913 17.1672V18.119C20.6913 19.3544 17.5132 21.1567 12.5421 21.1567Z" fill="white"/>
</svg>
