<?xml version="1.0" encoding="UTF-8" standalone="no"?>
<!-- Created with Inkscape (http://www.inkscape.org/) -->

<svg
   width="4.7624998mm"
   height="4.9391122mm"
   viewBox="0 0 4.7624998 4.9391122"
   version="1.1"
   id="svg5"
   xml:space="preserve"
   inkscape:export-filename="s.svg"
   inkscape:export-xdpi="96"
   inkscape:export-ydpi="96"
   xmlns:inkscape="http://www.inkscape.org/namespaces/inkscape"
   xmlns:sodipodi="http://sodipodi.sourceforge.net/DTD/sodipodi-0.dtd"
   xmlns="http://www.w3.org/2000/svg"
   xmlns:svg="http://www.w3.org/2000/svg"><sodipodi:namedview
     id="namedview7"
     pagecolor="#ffffff"
     bordercolor="#000000"
     borderopacity="0.25"
     inkscape:showpageshadow="2"
     inkscape:pageopacity="0.0"
     inkscape:pagecheckerboard="0"
     inkscape:deskcolor="#d1d1d1"
     inkscape:document-units="mm"
     showgrid="false" /><defs
     id="defs2" /><g
     inkscape:label="Layer 1"
     inkscape:groupmode="layer"
     id="layer1"
     transform="translate(-123.41542,-73.705488)"><g
       style="fill:none"
       id="g2285"
       transform="matrix(0.26458333,0,0,0.26458333,122.62167,72.866947)"><path
         d="m 19.6585,10.538 -7,-6.12505 c -0.377,-0.3299 -0.94,-0.3299 -1.317,0 l -7,6.12505 C 4.12448,10.7278 4,11.0022 4,11.2905 v 8.5463 c 0,0.5522 0.44772,1 1,1 h 4 c 0.55228,0 1,-0.4478 1,-1 v -4 c 0,-0.5523 0.4477,-1 1,-1 h 2 c 0.5523,0 1,0.4477 1,1 v 4 c 0,0.5522 0.4477,1 1,1 h 4 c 0.5523,0 1,-0.4478 1,-1 v -8.5463 c 0,-0.2883 -0.1245,-0.5627 -0.3415,-0.7525 z"
         stroke="#ffffff"
         stroke-width="2"
         stroke-linecap="round"
         stroke-linejoin="round"
         id="path2276" /></g></g></svg>
