<?xml version="1.0" encoding="UTF-8" standalone="no"?>
<!-- Created with Inkscape (http://www.inkscape.org/) -->

<svg
   width="2.7340348mm"
   height="3.2632914mm"
   viewBox="0 0 2.7340348 3.2632913"
   version="1.1"
   id="svg3874"
   xml:space="preserve"
   inkscape:export-filename="mail.svg"
   inkscape:export-xdpi="96"
   inkscape:export-ydpi="96"
   xmlns:inkscape="http://www.inkscape.org/namespaces/inkscape"
   xmlns:sodipodi="http://sodipodi.sourceforge.net/DTD/sodipodi-0.dtd"
   xmlns="http://www.w3.org/2000/svg"
   xmlns:svg="http://www.w3.org/2000/svg"><sodipodi:namedview
     id="namedview3876"
     pagecolor="#ffffff"
     bordercolor="#000000"
     borderopacity="0.25"
     inkscape:showpageshadow="2"
     inkscape:pageopacity="0.0"
     inkscape:pagecheckerboard="0"
     inkscape:deskcolor="#d1d1d1"
     inkscape:document-units="mm"
     showgrid="false" /><defs
     id="defs3871" /><g
     inkscape:label="Layer 1"
     inkscape:groupmode="layer"
     id="layer1"
     transform="translate(-95.061845,-208.98783)"><g
       style="fill:none"
       id="g5901"
       transform="matrix(0.26458333,0,0,0.26458333,94.07896,208.28232)"><path
         d="M 6.21484,7.83317 V 5.7591 c 0,-0.6876 0.28096,-1.34704 0.78105,-1.83324 0.5001,-0.48621 1.17838,-0.75936 1.88562,-0.75936 0.70724,0 1.38549,0.27315 1.88559,0.75936 0.5001,0.4862 0.7811,1.14564 0.7811,1.83324 v 2.07407"
         stroke="#555555"
         stroke-linecap="round"
         stroke-linejoin="round"
         id="path5889" /><path
         d="m 4.21484,8.50016 c 0,-0.36819 0.29848,-0.66666 0.66667,-0.66666 h 7.99999 c 0.3682,0 0.6667,0.29847 0.6667,0.66666 v 5.33334 c 0,0.3682 -0.2985,0.6667 -0.6667,0.6667 H 4.88151 c -0.36819,0 -0.66667,-0.2985 -0.66667,-0.6667 z"
         stroke="#555555"
         stroke-linecap="round"
         stroke-linejoin="round"
         id="path5891" /></g></g></svg>
