<svg width="10" height="18" viewBox="0 0 10 18" fill="none" xmlns="http://www.w3.org/2000/svg">
<path d="M0.334846 16.8941C0.440361 16.9998 0.565692 17.0837 0.703651 17.1409C0.841611 17.1981 0.989492 17.2275 1.13885 17.2275C1.2882 17.2275 1.4361 17.1981 1.57406 17.1409C1.71202 17.0837 1.83733 16.9998 1.94285 16.8941L9.58285 9.25409C9.66766 9.17037 9.73499 9.07064 9.78095 8.96069C9.82691 8.85074 9.85059 8.73276 9.85059 8.61359C9.85059 8.49442 9.82691 8.37643 9.78095 8.26648C9.73499 8.15653 9.66766 8.05681 9.58285 7.97309L1.94285 0.333084C1.72961 0.11985 1.44041 6.10352e-05 1.13885 6.10352e-05C0.989531 6.10352e-05 0.841679 0.0294685 0.703728 0.0866089C0.565777 0.143749 0.44043 0.227501 0.334846 0.333084C0.229263 0.438667 0.145513 0.564014 0.0883713 0.701965C0.03123 0.839916 0.00182343 0.987768 0.00182343 1.13708C0.00182343 1.2864 0.03123 1.43425 0.0883713 1.5722C0.145513 1.71016 0.229263 1.8355 0.334846 1.94109L7.00285 8.60408L0.325844 15.2811C0.115254 15.4963 -0.00192165 15.7859 -0.000236511 16.0869C0.00144863 16.388 0.121862 16.6763 0.334846 16.8891V16.8941Z" fill="#0E2238"/>
</svg>
