<?xml version="1.0" encoding="UTF-8" standalone="no"?>
<!-- Created with Inkscape (http://www.inkscape.org/) -->

<svg
   width="5.8208327mm"
   height="5.8208303mm"
   viewBox="0 0 5.8208327 5.8208303"
   version="1.1"
   id="svg5"
   xml:space="preserve"
   inkscape:export-filename="asd.svg"
   inkscape:export-xdpi="96"
   inkscape:export-ydpi="96"
   xmlns:inkscape="http://www.inkscape.org/namespaces/inkscape"
   xmlns:sodipodi="http://sodipodi.sourceforge.net/DTD/sodipodi-0.dtd"
   xmlns="http://www.w3.org/2000/svg"
   xmlns:svg="http://www.w3.org/2000/svg"><sodipodi:namedview
     id="namedview7"
     pagecolor="#ffffff"
     bordercolor="#000000"
     borderopacity="0.25"
     inkscape:showpageshadow="2"
     inkscape:pageopacity="0.0"
     inkscape:pagecheckerboard="0"
     inkscape:deskcolor="#d1d1d1"
     inkscape:document-units="mm"
     showgrid="false" /><defs
     id="defs2" /><g
     inkscape:label="Layer 1"
     inkscape:groupmode="layer"
     id="layer1"
     transform="translate(-194.88414,-136.43607)"><g
       style="fill:none"
       id="g3169"
       transform="matrix(0.26458333,0,0,0.26458333,194.61956,135.95005)"><path
         d="m 12,15.8369 c 1.6569,0 3,-1.3431 3,-3 0,-1.6568 -1.3431,-2.99999 -3,-2.99999 -1.6569,0 -3,1.34319 -3,2.99999 0,1.6569 1.3431,3 3,3 z"
         stroke="#91a2b8"
         stroke-width="2"
         stroke-linecap="round"
         stroke-linejoin="round"
         id="path3157" /><path
         d="m 18.7273,15.5642 c -0.121,0.2742 -0.1571,0.5783 -0.1037,0.8732 0.0535,0.295 0.1941,0.5671 0.4037,0.7813 l 0.0545,0.0546 c 0.1691,0.1688 0.3032,0.3694 0.3947,0.5901 0.0915,0.2207 0.1386,0.4573 0.1386,0.6962 0,0.239 -0.0471,0.4756 -0.1386,0.6963 -0.0915,0.2207 -0.2256,0.4212 -0.3947,0.5901 -0.1688,0.1691 -0.3694,0.3032 -0.5901,0.3947 -0.2207,0.0915 -0.4573,0.1386 -0.6962,0.1386 -0.239,0 -0.4756,-0.0471 -0.6963,-0.1386 -0.2207,-0.0915 -0.4212,-0.2256 -0.5901,-0.3947 l -0.0546,-0.0545 c -0.2142,-0.2096 -0.4863,-0.3502 -0.7812,-0.4037 -0.2949,-0.0535 -0.5991,-0.0174 -0.8733,0.1037 -0.2689,0.1152 -0.4982,0.3065 -0.6597,0.5504 -0.1615,0.2439 -0.2482,0.5298 -0.2494,0.8223 v 0.1545 c 0,0.4822 -0.1915,0.9447 -0.5325,1.2857 -0.341,0.341 -0.8035,0.5325 -1.2857,0.5325 -0.4822,0 -0.9446,-0.1915 -1.2856,-0.5325 -0.341,-0.341 -0.5326,-0.8035 -0.5326,-1.2857 V 20.9369 C 10.2475,20.636 10.1501,20.3442 9.97501,20.0994 9.79991,19.8546 9.55521,19.6681 9.27273,19.5642 8.99853,19.4432 8.69437,19.4071 8.39947,19.4605 8.10456,19.514 7.83244,19.6546 7.61818,19.8642 L 7.56364,19.9187 C 7.39478,20.0878 7.19425,20.2219 6.97353,20.3134 6.7528,20.4049 6.51621,20.452 6.27727,20.452 6.03834,20.452 5.80174,20.4049 5.58102,20.3134 5.36029,20.2219 5.15977,20.0878 4.99091,19.9187 4.82186,19.7499 4.68775,19.5493 4.59626,19.3286 c -0.0915,-0.2207 -0.1386,-0.4573 -0.1386,-0.6962 0,-0.239 0.0471,-0.4756 0.1386,-0.6963 0.09149,-0.2207 0.2256,-0.4212 0.39465,-0.5901 L 5.04545,17.2915 C 5.25503,17.0772 5.39562,16.8051 5.4491,16.5102 5.50257,16.2153 5.46647,15.9111 5.34545,15.6369 5.23022,15.368 5.03887,15.1387 4.79497,14.9772 4.55107,14.8157 4.26526,14.729 3.97273,14.7278 H 3.81818 c -0.48221,0 -0.94467,-0.1915 -1.28565,-0.5325 C 2.19156,13.8543 2,13.3919 2,12.9096 2,12.4274 2.19156,11.965 2.53253,11.624 2.87351,11.283 3.33597,11.0915 3.81818,11.0915 H 3.9 C 4.2009,11.0844 4.49273,10.987 4.73754,10.8119 4.98236,10.6368 5.16883,10.3921 5.27273,10.1096 5.39374,9.83545 5.42984,9.53128 5.37637,9.23638 5.3229,8.94147 5.18231,8.66935 4.97273,8.4551 L 4.91818,8.40055 C 4.74913,8.23169 4.61503,8.03117 4.52353,7.81044 4.43203,7.58972 4.38493,7.35312 4.38493,7.11419 c 0,-0.23894 0.0471,-0.47553 0.1386,-0.69626 0.0915,-0.22072 0.2256,-0.42125 0.39465,-0.59011 0.16886,-0.16904 0.36939,-0.30315 0.59011,-0.39465 0.22072,-0.0915 0.45732,-0.1386 0.69626,-0.1386 0.23893,0 0.47553,0.0471 0.69625,0.1386 0.22072,0.0915 0.42125,0.22561 0.59011,0.39465 L 7.54545,5.88237 C 7.75971,6.09195 8.03183,6.23254 8.32674,6.28601 8.62164,6.33948 8.9258,6.30338 9.2,6.18237 H 9.27273 C 9.54161,6.06713 9.77093,5.87578 9.93245,5.63188 10.094,5.38798 10.1807,5.10217 10.1818,4.80964 V 4.6551 c 0,-0.48222 0.1916,-0.94468 0.5326,-1.28565 C 11.0553,3.02847 11.5178,2.83691 12,2.83691 c 0.4822,0 0.9447,0.19156 1.2856,0.53254 0.341,0.34097 0.5326,0.80343 0.5326,1.28565 v 0.08181 c 0.0011,0.29254 0.0878,0.57835 0.2494,0.82225 0.1615,0.2439 0.3908,0.43524 0.6597,0.55048 0.2742,0.12102 0.5783,0.15711 0.8732,0.10364 0.2949,-0.05347 0.5671,-0.19406 0.7813,-0.40364 L 16.4364,5.7551 c 0.1688,-0.16905 0.3693,-0.30316 0.5901,-0.39466 0.2207,-0.0915 0.4573,-0.13859 0.6962,-0.13859 0.239,0 0.4756,0.04709 0.6963,0.13859 0.2207,0.0915 0.4212,0.22561 0.5901,0.39466 0.169,0.16886 0.3031,0.36938 0.3946,0.5901 0.0915,0.22073 0.1386,0.45732 0.1386,0.69626 0,0.23894 -0.0471,0.47553 -0.1386,0.69625 -0.0915,0.22073 -0.2256,0.42125 -0.3946,0.59011 l -0.0546,0.05455 c -0.2095,0.21425 -0.3501,0.48638 -0.4036,0.78128 -0.0535,0.29491 -0.0174,0.59907 0.1036,0.87325 v 0.0727 c 0.1153,0.2689 0.3066,0.4982 0.5505,0.6598 0.2439,0.1615 0.5297,0.2482 0.8223,0.2493 h 0.1545 c 0.4822,0 0.9447,0.1916 1.2857,0.5326 0.3409,0.3409 0.5325,0.8034 0.5325,1.2856 0,0.4822 -0.1916,0.9447 -0.5325,1.2857 -0.341,0.3409 -0.8035,0.5325 -1.2857,0.5325 H 20.1 c -0.2925,0.0012 -0.5783,0.0878 -0.8222,0.2494 -0.2439,0.1615 -0.4353,0.3908 -0.5505,0.6597 z"
         stroke="#91a2b8"
         stroke-width="2"
         stroke-linecap="round"
         stroke-linejoin="round"
         id="path3159" /></g></g></svg>
